<svg xmlns="http://www.w3.org/2000/svg" xmlns:xlink="http://www.w3.org/1999/xlink" width="333" zoomAndPan="magnify" viewBox="0 0 249.75 291.749991" height="389" preserveAspectRatio="xMidYMid meet" version="1.0"><defs><clipPath id="d1a6fe599f"><path d="M 103.359375 0.113281 L 148.3125 0.113281 L 148.3125 45.070312 L 103.359375 45.070312 Z M 103.359375 0.113281 " clip-rule="nonzero"/></clipPath><clipPath id="3e0b7589f1"><path d="M 125.835938 0.113281 C 113.421875 0.113281 103.359375 10.179688 103.359375 22.59375 C 103.359375 35.007812 113.421875 45.070312 125.835938 45.070312 C 138.25 45.070312 148.3125 35.007812 148.3125 22.59375 C 148.3125 10.179688 138.25 0.113281 125.835938 0.113281 Z M 125.835938 0.113281 " clip-rule="nonzero"/></clipPath><clipPath id="d2e88cb7cf"><path d="M 0.359375 0.113281 L 45.3125 0.113281 L 45.3125 45.070312 L 0.359375 45.070312 Z M 0.359375 0.113281 " clip-rule="nonzero"/></clipPath><clipPath id="89ed03870b"><path d="M 22.835938 0.113281 C 10.421875 0.113281 0.359375 10.179688 0.359375 22.59375 C 0.359375 35.007812 10.421875 45.070312 22.835938 45.070312 C 35.25 45.070312 45.3125 35.007812 45.3125 22.59375 C 45.3125 10.179688 35.25 0.113281 22.835938 0.113281 Z M 22.835938 0.113281 " clip-rule="nonzero"/></clipPath><clipPath id="73d59dc535"><rect x="0" width="46" y="0" height="46"/></clipPath><clipPath id="2d272fa384"><path d="M 0 0.0195312 L 249.5 0.0195312 L 249.5 291.480469 L 0 291.480469 Z M 0 0.0195312 " clip-rule="nonzero"/></clipPath><clipPath id="ef3fb85d43"><path d="M 103.359375 122.992188 L 148.3125 122.992188 L 148.3125 167.945312 L 103.359375 167.945312 Z M 103.359375 122.992188 " clip-rule="nonzero"/></clipPath><clipPath id="ff08dd774d"><path d="M 125.835938 122.992188 C 113.421875 122.992188 103.359375 133.054688 103.359375 145.46875 C 103.359375 157.882812 113.421875 167.945312 125.835938 167.945312 C 138.25 167.945312 148.3125 157.882812 148.3125 145.46875 C 148.3125 133.054688 138.25 122.992188 125.835938 122.992188 Z M 125.835938 122.992188 " clip-rule="nonzero"/></clipPath><clipPath id="3528757c55"><path d="M 0.359375 0.992188 L 45.3125 0.992188 L 45.3125 45.945312 L 0.359375 45.945312 Z M 0.359375 0.992188 " clip-rule="nonzero"/></clipPath><clipPath id="39ffbcc561"><path d="M 22.835938 0.992188 C 10.421875 0.992188 0.359375 11.054688 0.359375 23.46875 C 0.359375 35.882812 10.421875 45.945312 22.835938 45.945312 C 35.25 45.945312 45.3125 35.882812 45.3125 23.46875 C 45.3125 11.054688 35.25 0.992188 22.835938 0.992188 Z M 22.835938 0.992188 " clip-rule="nonzero"/></clipPath><clipPath id="8e6e64799c"><rect x="0" width="46" y="0" height="46"/></clipPath><clipPath id="a3c850d263"><path d="M 103.359375 246.054688 L 148.3125 246.054688 L 148.3125 291.011719 L 103.359375 291.011719 Z M 103.359375 246.054688 " clip-rule="nonzero"/></clipPath><clipPath id="c6dc2305fc"><path d="M 125.835938 246.054688 C 113.421875 246.054688 103.359375 256.121094 103.359375 268.535156 C 103.359375 280.949219 113.421875 291.011719 125.835938 291.011719 C 138.25 291.011719 148.3125 280.949219 148.3125 268.535156 C 148.3125 256.121094 138.25 246.054688 125.835938 246.054688 Z M 125.835938 246.054688 " clip-rule="nonzero"/></clipPath><clipPath id="69842fa758"><path d="M 0.359375 0.0546875 L 45.3125 0.0546875 L 45.3125 45.011719 L 0.359375 45.011719 Z M 0.359375 0.0546875 " clip-rule="nonzero"/></clipPath><clipPath id="96bcde5bfb"><path d="M 22.835938 0.0546875 C 10.421875 0.0546875 0.359375 10.121094 0.359375 22.535156 C 0.359375 34.949219 10.421875 45.011719 22.835938 45.011719 C 35.25 45.011719 45.3125 34.949219 45.3125 22.535156 C 45.3125 10.121094 35.25 0.0546875 22.835938 0.0546875 Z M 22.835938 0.0546875 " clip-rule="nonzero"/></clipPath><clipPath id="f9d2d21f47"><rect x="0" width="46" y="0" height="46"/></clipPath><clipPath id="013047f6da"><path d="M 189 0.0195312 L 249.5 0.0195312 L 249.5 291.480469 L 189 291.480469 Z M 189 0.0195312 " clip-rule="nonzero"/></clipPath><clipPath id="0881ec5f0e"><path d="M 197.054688 64.738281 L 242.007812 64.738281 L 242.007812 109.691406 L 197.054688 109.691406 Z M 197.054688 64.738281 " clip-rule="nonzero"/></clipPath><clipPath id="c24d9f964d"><path d="M 219.53125 64.738281 C 207.117188 64.738281 197.054688 74.800781 197.054688 87.214844 C 197.054688 99.628906 207.117188 109.691406 219.53125 109.691406 C 231.945312 109.691406 242.007812 99.628906 242.007812 87.214844 C 242.007812 74.800781 231.945312 64.738281 219.53125 64.738281 Z M 219.53125 64.738281 " clip-rule="nonzero"/></clipPath><clipPath id="1c41116e40"><path d="M 0.0546875 0.738281 L 45.007812 0.738281 L 45.007812 45.691406 L 0.0546875 45.691406 Z M 0.0546875 0.738281 " clip-rule="nonzero"/></clipPath><clipPath id="d47a0253ef"><path d="M 22.53125 0.738281 C 10.117188 0.738281 0.0546875 10.800781 0.0546875 23.214844 C 0.0546875 35.628906 10.117188 45.691406 22.53125 45.691406 C 34.945312 45.691406 45.007812 35.628906 45.007812 23.214844 C 45.007812 10.800781 34.945312 0.738281 22.53125 0.738281 Z M 22.53125 0.738281 " clip-rule="nonzero"/></clipPath><clipPath id="0795819306"><rect x="0" width="46" y="0" height="46"/></clipPath><clipPath id="64c672fbcc"><path d="M 197.054688 189.863281 L 242.007812 189.863281 L 242.007812 234.816406 L 197.054688 234.816406 Z M 197.054688 189.863281 " clip-rule="nonzero"/></clipPath><clipPath id="52b59c7746"><path d="M 219.53125 189.863281 C 207.117188 189.863281 197.054688 199.925781 197.054688 212.339844 C 197.054688 224.753906 207.117188 234.816406 219.53125 234.816406 C 231.945312 234.816406 242.007812 224.753906 242.007812 212.339844 C 242.007812 199.925781 231.945312 189.863281 219.53125 189.863281 Z M 219.53125 189.863281 " clip-rule="nonzero"/></clipPath><clipPath id="207c252f06"><path d="M 0.0546875 0.863281 L 45.007812 0.863281 L 45.007812 45.816406 L 0.0546875 45.816406 Z M 0.0546875 0.863281 " clip-rule="nonzero"/></clipPath><clipPath id="e7d456ed1a"><path d="M 22.53125 0.863281 C 10.117188 0.863281 0.0546875 10.925781 0.0546875 23.339844 C 0.0546875 35.753906 10.117188 45.816406 22.53125 45.816406 C 34.945312 45.816406 45.007812 35.753906 45.007812 23.339844 C 45.007812 10.925781 34.945312 0.863281 22.53125 0.863281 Z M 22.53125 0.863281 " clip-rule="nonzero"/></clipPath><clipPath id="4f674af639"><rect x="0" width="46" y="0" height="46"/></clipPath><clipPath id="cab07f6fab"><path d="M 0 0.0195312 L 60 0.0195312 L 60 291.480469 L 0 291.480469 Z M 0 0.0195312 " clip-rule="nonzero"/></clipPath><clipPath id="951ff7d75d"><path d="M 7.492188 64.738281 L 52.449219 64.738281 L 52.449219 109.691406 L 7.492188 109.691406 Z M 7.492188 64.738281 " clip-rule="nonzero"/></clipPath><clipPath id="2b1fb5974b"><path d="M 29.96875 64.738281 C 17.554688 64.738281 7.492188 74.800781 7.492188 87.214844 C 7.492188 99.628906 17.554688 109.691406 29.96875 109.691406 C 42.382812 109.691406 52.449219 99.628906 52.449219 87.214844 C 52.449219 74.800781 42.382812 64.738281 29.96875 64.738281 Z M 29.96875 64.738281 " clip-rule="nonzero"/></clipPath><clipPath id="e8b2c098f8"><path d="M 0.492188 0.738281 L 45.449219 0.738281 L 45.449219 45.691406 L 0.492188 45.691406 Z M 0.492188 0.738281 " clip-rule="nonzero"/></clipPath><clipPath id="6488d83c48"><path d="M 22.96875 0.738281 C 10.554688 0.738281 0.492188 10.800781 0.492188 23.214844 C 0.492188 35.628906 10.554688 45.691406 22.96875 45.691406 C 35.382812 45.691406 45.449219 35.628906 45.449219 23.214844 C 45.449219 10.800781 35.382812 0.738281 22.96875 0.738281 Z M 22.96875 0.738281 " clip-rule="nonzero"/></clipPath><clipPath id="e46a07d2f2"><rect x="0" width="46" y="0" height="46"/></clipPath><clipPath id="b6a67653a3"><path d="M 13.488281 189.863281 L 58.441406 189.863281 L 58.441406 234.816406 L 13.488281 234.816406 Z M 13.488281 189.863281 " clip-rule="nonzero"/></clipPath><clipPath id="07616d61f6"><path d="M 35.964844 189.863281 C 23.550781 189.863281 13.488281 199.925781 13.488281 212.339844 C 13.488281 224.753906 23.550781 234.816406 35.964844 234.816406 C 48.378906 234.816406 58.441406 224.753906 58.441406 212.339844 C 58.441406 199.925781 48.378906 189.863281 35.964844 189.863281 Z M 35.964844 189.863281 " clip-rule="nonzero"/></clipPath><clipPath id="1bcf8ac17a"><path d="M 0.488281 0.863281 L 45.441406 0.863281 L 45.441406 45.816406 L 0.488281 45.816406 Z M 0.488281 0.863281 " clip-rule="nonzero"/></clipPath><clipPath id="4c5e002c9d"><path d="M 22.964844 0.863281 C 10.550781 0.863281 0.488281 10.925781 0.488281 23.339844 C 0.488281 35.753906 10.550781 45.816406 22.964844 45.816406 C 35.378906 45.816406 45.441406 35.753906 45.441406 23.339844 C 45.441406 10.925781 35.378906 0.863281 22.964844 0.863281 Z M 22.964844 0.863281 " clip-rule="nonzero"/></clipPath><clipPath id="912d5c4be5"><rect x="0" width="46" y="0" height="46"/></clipPath><clipPath id="77a14210ac"><path d="M 41 60 L 249.5 60 L 249.5 285 L 41 285 Z M 41 60 " clip-rule="nonzero"/></clipPath><clipPath id="31631e0575"><path d="M 60 139 L 249.5 139 L 249.5 291.480469 L 60 291.480469 Z M 60 139 " clip-rule="nonzero"/></clipPath><clipPath id="0c05bc296a"><path d="M 59 0.0195312 L 249.5 0.0195312 L 249.5 160 L 59 160 Z M 59 0.0195312 " clip-rule="nonzero"/></clipPath><clipPath id="b91e9a5f9e"><path d="M 41 14 L 249.5 14 L 249.5 231 L 41 231 Z M 41 14 " clip-rule="nonzero"/></clipPath></defs><g clip-path="url(#d1a6fe599f)"><g clip-path="url(#3e0b7589f1)"><g transform="matrix(1, 0, 0, 1, 103, 0.000000000000043521)"><g clip-path="url(#73d59dc535)"><g clip-path="url(#d2e88cb7cf)"><g clip-path="url(#89ed03870b)"><path fill="#1800ad" d="M 0.359375 0.113281 L 45.3125 0.113281 L 45.3125 45.070312 L 0.359375 45.070312 Z M 0.359375 0.113281 " fill-opacity="1" fill-rule="nonzero"/></g></g></g></g></g></g><g clip-path="url(#2d272fa384)"><path stroke-linecap="butt" transform="matrix(0.420541, 0.620098, -0.620098, 0.420541, 60.254682, 0.891281)" fill="none" stroke-linejoin="miter" d="M 0.00310845 36.999799 L 417.711523 36.998632 " stroke="#b2c9e8" stroke-width="74" stroke-opacity="1" stroke-miterlimit="4"/></g><g clip-path="url(#ef3fb85d43)"><g clip-path="url(#ff08dd774d)"><g transform="matrix(1, 0, 0, 1, 103, 122)"><g clip-path="url(#8e6e64799c)"><g clip-path="url(#3528757c55)"><g clip-path="url(#39ffbcc561)"><path fill="#1800ad" d="M 0.359375 0.992188 L 45.3125 0.992188 L 45.3125 45.945312 L 0.359375 45.945312 Z M 0.359375 0.992188 " fill-opacity="1" fill-rule="nonzero"/></g></g></g></g></g></g><g clip-path="url(#a3c850d263)"><g clip-path="url(#c6dc2305fc)"><g transform="matrix(1, 0, 0, 1, 103, 246)"><g clip-path="url(#f9d2d21f47)"><g clip-path="url(#69842fa758)"><g clip-path="url(#96bcde5bfb)"><path fill="#1800ad" d="M 0.359375 0.0546875 L 45.3125 0.0546875 L 45.3125 45.011719 L 0.359375 45.011719 Z M 0.359375 0.0546875 " fill-opacity="1" fill-rule="nonzero"/></g></g></g></g></g></g><g clip-path="url(#013047f6da)"><path stroke-linecap="butt" transform="matrix(0, -0.74925, 0.74925, 0, 189.55439, 290.911443)" fill="none" stroke-linejoin="miter" d="M 0.00171784 39.998731 L 388.249357 39.998731 " stroke="#b2c9e8" stroke-width="80" stroke-opacity="1" stroke-miterlimit="4"/></g><g clip-path="url(#0881ec5f0e)"><g clip-path="url(#c24d9f964d)"><g transform="matrix(1, 0, 0, 1, 197, 64)"><g clip-path="url(#0795819306)"><g clip-path="url(#1c41116e40)"><g clip-path="url(#d47a0253ef)"><path fill="#1800ad" d="M 0.0546875 0.738281 L 45.007812 0.738281 L 45.007812 45.691406 L 0.0546875 45.691406 Z M 0.0546875 0.738281 " fill-opacity="1" fill-rule="nonzero"/></g></g></g></g></g></g><g clip-path="url(#64c672fbcc)"><g clip-path="url(#52b59c7746)"><g transform="matrix(1, 0, 0, 1, 197, 189)"><g clip-path="url(#4f674af639)"><g clip-path="url(#207c252f06)"><g clip-path="url(#e7d456ed1a)"><path fill="#1800ad" d="M 0.0546875 0.863281 L 45.007812 0.863281 L 45.007812 45.816406 L 0.0546875 45.816406 Z M 0.0546875 0.863281 " fill-opacity="1" fill-rule="nonzero"/></g></g></g></g></g></g><g clip-path="url(#cab07f6fab)"><path stroke-linecap="butt" transform="matrix(0, -0.74925, 0.74925, 0, -0.00584208, 290.911443)" fill="none" stroke-linejoin="miter" d="M 0.00171784 40.000917 L 388.249357 40.000917 " stroke="#b2c9e8" stroke-width="80" stroke-opacity="1" stroke-miterlimit="4"/></g><g clip-path="url(#951ff7d75d)"><g clip-path="url(#2b1fb5974b)"><g transform="matrix(1, 0, 0, 1, 7, 64)"><g clip-path="url(#e46a07d2f2)"><g clip-path="url(#e8b2c098f8)"><g clip-path="url(#6488d83c48)"><path fill="#1800ad" d="M 0.492188 0.738281 L 45.449219 0.738281 L 45.449219 45.691406 L 0.492188 45.691406 Z M 0.492188 0.738281 " fill-opacity="1" fill-rule="nonzero"/></g></g></g></g></g></g><g clip-path="url(#b6a67653a3)"><g clip-path="url(#07616d61f6)"><g transform="matrix(1, 0, 0, 1, 13, 189)"><g clip-path="url(#912d5c4be5)"><g clip-path="url(#1bcf8ac17a)"><g clip-path="url(#4c5e002c9d)"><path fill="#1800ad" d="M 0.488281 0.863281 L 45.441406 0.863281 L 45.441406 45.816406 L 0.488281 45.816406 Z M 0.488281 0.863281 " fill-opacity="1" fill-rule="nonzero"/></g></g></g></g></g></g><path stroke-linecap="butt" transform="matrix(0.60111, -0.447261, 0.447261, 0.60111, 49.525097, 192.907864)" fill="none" stroke-linejoin="miter" d="M -0.000942412 9.99765 L 119.507998 10.001847 " stroke="#1800ad" stroke-width="20" stroke-opacity="1" stroke-miterlimit="4"/><path stroke-linecap="butt" transform="matrix(0, -0.74925, 0.74925, 0, 118.338187, 246.0501)" fill="none" stroke-linejoin="miter" d="M -0.000908898 10.001794 L 268.25173 10.001794 " stroke="#1800ad" stroke-width="20" stroke-opacity="1" stroke-miterlimit="4"/><g clip-path="url(#77a14210ac)"><path stroke-linecap="butt" transform="matrix(-0.609854, -0.435262, 0.435262, -0.609854, 196.876799, 205.378163)" fill="none" stroke-linejoin="miter" d="M -0.00240621 9.999041 L 123.630724 9.998541 " stroke="#1800ad" stroke-width="20" stroke-opacity="1" stroke-miterlimit="4"/></g><path stroke-linecap="butt" transform="matrix(-0.635061, -0.397584, 0.397584, -0.635061, 119.042964, 151.81961)" fill="none" stroke-linejoin="miter" d="M -0.000640369 10.000797 L 116.516378 9.999029 " stroke="#1800ad" stroke-width="20" stroke-opacity="1" stroke-miterlimit="4"/><g clip-path="url(#31631e0575)"><path stroke-linecap="butt" transform="matrix(-0.642544, 0.385373, -0.385373, -0.642544, 204.097243, 230.330119)" fill="none" stroke-linejoin="miter" d="M 0.0026031 9.999109 L 85.806444 9.999178 " stroke="#1800ad" stroke-width="20" stroke-opacity="1" stroke-miterlimit="4"/></g><g clip-path="url(#0c05bc296a)"><path stroke-linecap="butt" transform="matrix(-0.616772, -0.425403, 0.425403, -0.616772, 196.762057, 80.616534)" fill="none" stroke-linejoin="miter" d="M 0.000196441 9.999205 L 91.905026 10.000972 " stroke="#1800ad" stroke-width="20" stroke-opacity="1" stroke-miterlimit="4"/></g><g clip-path="url(#b91e9a5f9e)"><path stroke-linecap="butt" transform="matrix(0.63629, -0.395614, 0.395614, 0.63629, 121.879747, 139.103946)" fill="none" stroke-linejoin="miter" d="M -0.00128624 10.002193 L 117.245494 9.998683 " stroke="#1800ad" stroke-width="20" stroke-opacity="1" stroke-miterlimit="4"/></g></svg>